# xmcd
# 
# Track frame offsets:
#     150
#     15657
#     33162
#     54957
#     73245
# 
# Disc length: 1160
# 
# Revision: 4
# Processed by: cddbd v1.5.2PL0 Copyright (c) Steve Scherf et al.
# Submitted via: fre:ac v1.0.31
# 
DISCID=38048605
DTITLE=Tibes A 2000' - Compile été
DYEAR=2000
DGENRE=Dance
TTITLE0=01 - Cuba Trinidad - Soca Dance
TTITLE1=02 - Lorca - Ritmo De La Noche
TTITLE2=03 - Aparecida - Lambada
TTITLE3=04 - Opus - Live Is Life
TTITLE4=05 - The Michael Zager Band - Let's All Chant
EXTD=YEAR: 2000
EXTT0=
EXTT1=
EXTT2=
EXTT3=
EXTT4=
PLAYORDER=
